<?xml version="1.0" encoding="UTF-8" standalone="no"?>
<!-- Created with Inkscape (http://www.inkscape.org/) -->

<svg
   width="206.4424mm"
   height="115.4951mm"
   viewBox="0 0 206.44239 115.4951"
   version="1.1"
   id="svg5"
   inkscape:version="1.4.2 (f4327f4, 2025-05-13)"
   xml:space="preserve"
   sodipodi:docname="newrecoveryfeed2.svg"
   inkscape:export-filename="newrecoveryfeed.png"
   inkscape:export-xdpi="500"
   inkscape:export-ydpi="500"
   xmlns:inkscape="http://www.inkscape.org/namespaces/inkscape"
   xmlns:sodipodi="http://sodipodi.sourceforge.net/DTD/sodipodi-0.dtd"
   xmlns="http://www.w3.org/2000/svg"
   xmlns:svg="http://www.w3.org/2000/svg"><sodipodi:namedview
     id="namedview7"
     pagecolor="#ffffff"
     bordercolor="#999999"
     borderopacity="1"
     inkscape:showpageshadow="0"
     inkscape:pageopacity="0"
     inkscape:pagecheckerboard="0"
     inkscape:deskcolor="#d1d1d1"
     inkscape:document-units="in"
     showgrid="false"
     inkscape:zoom="1.2309005"
     inkscape:cx="308.71707"
     inkscape:cy="344.86947"
     inkscape:window-width="1920"
     inkscape:window-height="1009"
     inkscape:window-x="1912"
     inkscape:window-y="-8"
     inkscape:window-maximized="1"
     inkscape:current-layer="g1"
     inkscape:export-bgcolor="#ffffffff" /><defs
     id="defs2"><style
       type="text/css"
       id="style1">*{stroke-linejoin: round; stroke-linecap: butt}</style><clipPath
       id="p472f974328"><path
         d="m 193.86,109.08 c 0,-10.920471 -2.1511,-21.734754 -6.33018,-31.823954 C 183.35074,67.166846 177.22494,57.998939 169.503,50.277 161.78106,42.555061 152.61315,36.429261 142.52395,32.250178 132.43475,28.071095 121.62047,25.92 110.7,25.92 99.779529,25.92 88.965246,28.071095 78.876046,32.250178 68.786846,36.429261 59.618939,42.555061 51.897,50.277 44.175061,57.998939 38.049261,67.166846 33.870178,77.256046 29.691095,87.345246 27.54,98.159529 27.54,109.08 c 0,10.92047 2.151095,21.73475 6.330178,31.82395 4.179083,10.0892 10.304883,19.25711 18.026822,26.97905 7.721939,7.72194 16.889846,13.84774 26.979046,18.02682 10.0892,4.17908 20.903483,6.33018 31.823954,6.33018 10.92047,0 21.73475,-2.1511 31.82395,-6.33018 10.0892,-4.17908 19.25711,-10.30488 26.97905,-18.02682 7.72194,-7.72194 13.84774,-16.88985 18.02682,-26.97905 C 191.7089,130.81475 193.86,120.00047 193.86,109.08 m -83.16,0 z"
         id="path35" /></clipPath><style
       type="text/css"
       id="style1-3">*{stroke-linejoin: round; stroke-linecap: butt}</style><path
       id="m567bcb81b3"
       d="M 0,0 V 6"
       style="stroke:#000000" /><path
       id="m62410a67f0"
       d="M 0,0 H 6"
       style="stroke:#000000" /><clipPath
       id="pc8d82c776d"><rect
         x="10.8"
         y="53.1525"
         width="2.5975001"
         height="126.4575"
         id="rect56" /></clipPath><clipPath
       id="p86325b8f6d"><rect
         x="13.5975"
         y="10.8"
         width="7.7925"
         height="42.1525"
         id="rect57" /></clipPath><clipPath
       id="p1f919eba14"><rect
         x="13.5975"
         y="53.1525"
         width="7.7925"
         height="126.4575"
         id="rect58" /></clipPath><style
       type="text/css"
       id="style1-4">*{stroke-linejoin: round; stroke-linecap: butt}</style><path
       id="mc2f84219f2"
       d="M 0,0 V 6"
       style="stroke:#000000" /><path
       id="m8678798960"
       d="M 0,0 H -6"
       style="stroke:#000000" /><path
       id="m61d150d723"
       d="M 0,0.5 C 0.132602,0.5 0.25979,0.447317 0.353553,0.353553 0.447317,0.25979 0.5,0.132602 0.5,0 0.5,-0.132602 0.447317,-0.25979 0.353553,-0.353553 0.25979,-0.447317 0.132602,-0.5 0,-0.5 c -0.132602,0 -0.25979,0.052683 -0.353553,0.146447 C -0.447317,-0.25979 -0.5,-0.132602 -0.5,0 c 0,0.132602 0.052683,0.25979 0.146447,0.353553 C -0.25979,0.447317 -0.132602,0.5 0,0.5 Z"
       style="stroke:#db5f57" /><path
       id="m40f52852fd"
       d="M 0,0.5 C 0.132602,0.5 0.25979,0.447317 0.353553,0.353553 0.447317,0.25979 0.5,0.132602 0.5,0 0.5,-0.132602 0.447317,-0.25979 0.353553,-0.353553 0.25979,-0.447317 0.132602,-0.5 0,-0.5 c -0.132602,0 -0.25979,0.052683 -0.353553,0.146447 C -0.447317,-0.25979 -0.5,-0.132602 -0.5,0 c 0,0.132602 0.052683,0.25979 0.146447,0.353553 C -0.25979,0.447317 -0.132602,0.5 0,0.5 Z"
       style="stroke:#d3db57" /><path
       id="m2cd23edd72"
       d="M 0,0.5 C 0.132602,0.5 0.25979,0.447317 0.353553,0.353553 0.447317,0.25979 0.5,0.132602 0.5,0 0.5,-0.132602 0.447317,-0.25979 0.353553,-0.353553 0.25979,-0.447317 0.132602,-0.5 0,-0.5 c -0.132602,0 -0.25979,0.052683 -0.353553,0.146447 C -0.447317,-0.25979 -0.5,-0.132602 -0.5,0 c 0,0.132602 0.052683,0.25979 0.146447,0.353553 C -0.25979,0.447317 -0.132602,0.5 0,0.5 Z"
       style="stroke:#57d3db" /><path
       id="mb87699674c"
       d="M 0,0.5 C 0.132602,0.5 0.25979,0.447317 0.353553,0.353553 0.447317,0.25979 0.5,0.132602 0.5,0 0.5,-0.132602 0.447317,-0.25979 0.353553,-0.353553 0.25979,-0.447317 0.132602,-0.5 0,-0.5 c -0.132602,0 -0.25979,0.052683 -0.353553,0.146447 C -0.447317,-0.25979 -0.5,-0.132602 -0.5,0 c 0,0.132602 0.052683,0.25979 0.146447,0.353553 C -0.25979,0.447317 -0.132602,0.5 0,0.5 Z"
       style="stroke:#57db5f" /><path
       id="m874daaa572"
       d="M 0,0.5 C 0.132602,0.5 0.25979,0.447317 0.353553,0.353553 0.447317,0.25979 0.5,0.132602 0.5,0 0.5,-0.132602 0.447317,-0.25979 0.353553,-0.353553 0.25979,-0.447317 0.132602,-0.5 0,-0.5 c -0.132602,0 -0.25979,0.052683 -0.353553,0.146447 C -0.447317,-0.25979 -0.5,-0.132602 -0.5,0 c 0,0.132602 0.052683,0.25979 0.146447,0.353553 C -0.25979,0.447317 -0.132602,0.5 0,0.5 Z"
       style="stroke:#db57d3" /><path
       id="m390e588e05"
       d="M 0,0.5 C 0.132602,0.5 0.25979,0.447317 0.353553,0.353553 0.447317,0.25979 0.5,0.132602 0.5,0 0.5,-0.132602 0.447317,-0.25979 0.353553,-0.353553 0.25979,-0.447317 0.132602,-0.5 0,-0.5 c -0.132602,0 -0.25979,0.052683 -0.353553,0.146447 C -0.447317,-0.25979 -0.5,-0.132602 -0.5,0 c 0,0.132602 0.052683,0.25979 0.146447,0.353553 C -0.25979,0.447317 -0.132602,0.5 0,0.5 Z"
       style="stroke:#5f57db" /><path
       id="mb50a42d361"
       d="M -1.581139,0 H 1.581139 M 0,1.581139 v -3.162278"
       style="stroke:#000000;stroke-width:0.25" /><clipPath
       id="pfd960a23f3"><rect
         x="27"
         y="25.92"
         width="167.39999"
         height="166.32001"
         id="rect457" /></clipPath><defs
       id="defs16"><path
         id="path20"
         d="M 0,0 H 6"
         style="stroke:#000000" /></defs><marker
       style="overflow:visible"
       id="Triangle"
       refX="0"
       refY="0"
       orient="auto-start-reverse"
       inkscape:stockid="Triangle arrow"
       markerWidth="1"
       markerHeight="1"
       viewBox="0 0 1 1"
       inkscape:isstock="true"
       inkscape:collect="always"
       preserveAspectRatio="xMidYMid"><path
         transform="scale(0.5)"
         style="fill:context-stroke;fill-rule:evenodd;stroke:context-stroke;stroke-width:1pt"
         d="M 5.77,0 -2.88,5 V -5 Z"
         id="path135" /></marker></defs><g
     inkscape:label="Layer 1"
     inkscape:groupmode="layer"
     id="layer1"
     transform="translate(19.652011,6.5695895)"><g
       id="figure_1-6"
       transform="matrix(0.32216555,0,0,0.32216555,15.140087,21.159038)"
       style="stroke-width:1.09502"><g
         id="patch_1-7"
         style="stroke-width:1.09502"
         transform="translate(4.6704472,39.365198)"><rect
           style="fill:#e6e6e6;stroke:#e6e6e6;stroke-width:0.254999;stroke-dashoffset:9.31138"
           id="rect1"
           width="28.784836"
           height="4.9439602"
           x="35.719238"
           y="68.644081"
           transform="matrix(4.294207,0,0,4.294207,-235.43202,-145.89176)" /><rect
           style="fill:#e6e6e6;stroke:#e6e6e6;stroke-width:1.21809;stroke-dashoffset:9.31138"
           id="rect2"
           width="123.48497"
           height="26.296968"
           x="-81.98468"
           y="171.9371" /></g><g
         id="axes_1-3"
         style="stroke-width:1.09502" /><g
         id="axes_3"
         transform="translate(-9.597839,-60.204626)"
         style="stroke-width:1.09502"><g
           id="matplotlib.axis_2-7"
           style="stroke-width:1.09502"><g
             inkscape:label="Layer 1"
             id="layer1-0"
             transform="matrix(4.294207,0,0,4.294207,-225.83418,-85.687135)"><circle
               style="fill:#ff7f2a;stroke-width:0.111679;stroke-dasharray:0.779917, 1.55984;stroke-dashoffset:1.55984"
               id="path1"
               cx="47.662735"
               cy="48.797295"
               r="3.4369724" /><circle
               style="fill:#008080;stroke:#000000;stroke-width:0.13516;stroke-dasharray:none;stroke-dashoffset:1.63415"
               id="circle1"
               cx="47.662735"
               cy="64.002853"
               r="3.4369724" /><circle
               style="fill:#ffd42a;stroke:#000000;stroke-width:0.13516;stroke-dasharray:none;stroke-dashoffset:1.63415"
               id="circle3"
               cx="67.936806"
               cy="53.86581"
               r="3.4369724" /><circle
               style="fill:#ff0000;stroke:#000000;stroke-width:0.13516;stroke-dasharray:none;stroke-dashoffset:1.63415"
               id="circle4"
               cx="67.936806"
               cy="43.728775"
               r="3.4369724" /><circle
               style="fill:#008080;stroke:#000000;stroke-width:0.13516;stroke-dasharray:none;stroke-dashoffset:1.63415"
               id="circle5"
               cx="67.936806"
               cy="64.002853"
               r="3.4369724" /><path
               style="fill:#000000;stroke:#000000;stroke-width:0.13516;stroke-dasharray:none;stroke-dashoffset:9.29086;marker-end:url(#Triangle)"
               d="m 51.660285,49.381851 11.855463,2.954876"
               id="path6-9"
               sodipodi:nodetypes="cc" /><path
               style="fill:#000000;stroke:#000000;stroke-width:0.13516;stroke-dasharray:none;stroke-dashoffset:9.29086;marker-end:url(#Triangle)"
               d="M 51.803168,63.755361 H 63.634265"
               id="path7-4"
               sodipodi:nodetypes="cc" /><path
               style="fill:none;stroke:#000000;stroke-width:0.135054;stroke-dasharray:none;stroke-dashoffset:9.29086;marker-end:url(#Triangle)"
               d="m 36.646321,37.781359 v 33.13594 H 82.03198"
               id="path8-8"
               sodipodi:nodetypes="ccc" /><circle
               style="fill:#ff7f2a;stroke:#000000;stroke-width:0.13516;stroke-dasharray:none;stroke-dashoffset:1.63415"
               id="circle8"
               cx="47.662735"
               cy="48.797295"
               r="3.4369724" /><path
               style="fill:#000000;stroke:#000000;stroke-width:0.13516;stroke-dasharray:none;stroke-dashoffset:9.29086;marker-end:url(#Triangle)"
               d="M 51.616221,47.768621 63.471684,44.813745"
               id="path9-8"
               sodipodi:nodetypes="cc" /><text
               xml:space="preserve"
               style="font-size:2.02741px;font-family:'Myanmar Text';-inkscape-font-specification:'Myanmar Text';text-align:start;writing-mode:lr-tb;direction:ltr;text-anchor:start;fill:#000000;stroke:none;stroke-width:0.13516;stroke-dasharray:none;stroke-dashoffset:6.17633"
               x="52.900051"
               y="76.378609"
               id="text9"><tspan
                 sodipodi:role="line"
                 id="tspan9"
                 style="font-style:normal;font-variant:normal;font-weight:normal;font-stretch:normal;font-family:Arial;-inkscape-font-specification:Arial;fill:#000000;stroke:none;stroke-width:0.13516"
                 x="52.900051"
                 y="76.378609">Timepoint</tspan></text><text
               xml:space="preserve"
               style="font-size:2.02741px;font-family:'Myanmar Text';-inkscape-font-specification:'Myanmar Text';text-align:start;writing-mode:lr-tb;direction:ltr;text-anchor:start;fill:#000000;stroke:none;stroke-width:0.13516;stroke-dasharray:none;stroke-dashoffset:6.17633"
               x="-58.171513"
               y="34.53524"
               id="text1-2"
               transform="rotate(-90)"><tspan
                 sodipodi:role="line"
                 id="tspan1-4"
                 style="font-style:normal;font-variant:normal;font-weight:normal;font-stretch:normal;font-family:Arial;-inkscape-font-specification:Arial;fill:#000000;stroke:none;stroke-width:0.13516"
                 x="-58.171513"
                 y="34.53524">Component</tspan></text><text
               xml:space="preserve"
               style="font-style:normal;font-variant:normal;font-weight:normal;font-stretch:normal;font-size:2.02741px;font-family:Arial;-inkscape-font-specification:Arial;text-align:start;writing-mode:lr-tb;direction:ltr;text-anchor:start;fill:#000000;stroke:none;stroke-width:0.135054;stroke-dasharray:none;stroke-dashoffset:9.31138"
               x="46.164566"
               y="49.326057"
               id="text2"><tspan
                 sodipodi:role="line"
                 id="tspan2-5"
                 style="stroke-width:0.135054"
                 x="46.164566"
                 y="49.326057">M1</tspan></text><text
               xml:space="preserve"
               style="font-style:normal;font-variant:normal;font-weight:normal;font-stretch:normal;font-size:2.02741px;font-family:Arial;-inkscape-font-specification:Arial;text-align:start;writing-mode:lr-tb;direction:ltr;text-anchor:start;fill:#000000;stroke:none;stroke-width:0.135054;stroke-dasharray:none;stroke-dashoffset:9.31138"
               x="46.164566"
               y="64.531616"
               id="text3"><tspan
                 sodipodi:role="line"
                 id="tspan3"
                 style="stroke-width:0.135054"
                 x="46.164566"
                 y="64.531616">H1</tspan></text><text
               xml:space="preserve"
               style="font-style:normal;font-variant:normal;font-weight:normal;font-stretch:normal;font-size:2.02741px;font-family:Arial;-inkscape-font-specification:Arial;text-align:start;writing-mode:lr-tb;direction:ltr;text-anchor:start;fill:#000000;stroke:none;stroke-width:0.135054;stroke-dasharray:none;stroke-dashoffset:9.31138"
               x="66.438644"
               y="64.531616"
               id="text4"><tspan
                 sodipodi:role="line"
                 id="tspan4"
                 style="stroke-width:0.135054"
                 x="66.438644"
                 y="64.531616">H2</tspan></text><text
               xml:space="preserve"
               style="font-style:normal;font-variant:normal;font-weight:normal;font-stretch:normal;font-size:2.02741px;font-family:Arial;-inkscape-font-specification:Arial;text-align:start;writing-mode:lr-tb;direction:ltr;text-anchor:start;fill:#000000;stroke:none;stroke-width:0.135054;stroke-dasharray:none;stroke-dashoffset:9.31138"
               x="65.689552"
               y="44.279446"
               id="text5"><tspan
                 sodipodi:role="line"
                 id="tspan5"
                 style="stroke-width:0.135054"
                 x="65.689552"
                 y="44.279446">Mnr2</tspan></text><text
               xml:space="preserve"
               style="font-style:normal;font-variant:normal;font-weight:normal;font-stretch:normal;font-size:2.02741px;font-family:Arial;-inkscape-font-specification:Arial;text-align:start;writing-mode:lr-tb;direction:ltr;text-anchor:start;fill:#000000;stroke:none;stroke-width:0.135054;stroke-dasharray:none;stroke-dashoffset:9.31138"
               x="66.063454"
               y="54.416481"
               id="text6"><tspan
                 sodipodi:role="line"
                 id="tspan6"
                 style="stroke-width:0.135054"
                 x="66.063454"
                 y="54.416481">Mr2</tspan></text><path
               style="fill:none;stroke:#918a6f;stroke-width:0.135054;stroke-dasharray:none;stroke-dashoffset:9.31138"
               d="m 43.359791,48.764042 c -1.679179,0 0.112697,6.940792 -2.295989,6.940792 2.396281,0 -0.01724,8.097658 2.344483,8.097658"
               id="path10-5"
               sodipodi:nodetypes="ccc" /><text
               xml:space="preserve"
               style="font-size:1.68951px;font-family:'Myanmar Text';-inkscape-font-specification:'Myanmar Text';text-align:start;writing-mode:lr-tb;direction:ltr;text-anchor:start;fill:#000000;stroke:none;stroke-width:0.13516;stroke-dasharray:none;stroke-dashoffset:6.17633"
               x="40.935463"
               y="73.075882"
               id="text10"><tspan
                 sodipodi:role="line"
                 id="tspan10"
                 style="font-style:normal;font-variant:normal;font-weight:normal;font-stretch:normal;font-size:1.68951px;font-family:Arial;-inkscape-font-specification:Arial;fill:#000000;stroke:none;stroke-width:0.13516"
                 x="40.935463"
                 y="73.075882">T1 (baseline)</tspan></text><text
               xml:space="preserve"
               style="font-size:1.68951px;font-family:'Myanmar Text';-inkscape-font-specification:'Myanmar Text';text-align:start;writing-mode:lr-tb;direction:ltr;text-anchor:start;fill:#000000;stroke:none;stroke-width:0.13516;stroke-dasharray:none;stroke-dashoffset:6.17633"
               x="59.182129"
               y="73.075882"
               id="text11"><tspan
                 sodipodi:role="line"
                 id="tspan11"
                 style="font-style:normal;font-variant:normal;font-weight:normal;font-stretch:normal;font-size:1.68951px;font-family:Arial;-inkscape-font-specification:Arial;fill:#000000;stroke:none;stroke-width:0.13516"
                 x="59.182129"
                 y="73.075882">T2 (1 yr post-treatment)</tspan></text><path
               style="fill:none;stroke:#918a6f;stroke-width:0.135054;stroke-dasharray:none;stroke-dashoffset:9.31138"
               d="m 72.541412,64.11407 c 1.679179,0 -0.237328,-5.195958 2.171358,-5.195958 -2.39628,0 0.01724,-5.168827 -2.344483,-5.168827"
               id="path11-1"
               sodipodi:nodetypes="ccc" /><path
               style="fill:none;stroke:#918a6f;stroke-width:0.135054;stroke-dasharray:none;stroke-dashoffset:9.31138"
               d="m 77.103078,64.11407 c 1.679179,0 -0.237328,-10.368149 2.171358,-10.368149 -2.39628,0 0.01724,-10.15407 -2.344483,-10.15407"
               id="path12-7"
               sodipodi:nodetypes="ccc" /><text
               xml:space="preserve"
               style="font-style:normal;font-variant:normal;font-weight:normal;font-stretch:normal;font-size:1.68951px;font-family:Arial;-inkscape-font-specification:Arial;text-align:start;writing-mode:lr-tb;direction:ltr;text-anchor:start;fill:none;stroke:#918a6f;stroke-width:0.135054;stroke-dasharray:none;stroke-dashoffset:9.31138"
               x="38.920334"
               y="56.244118"
               id="text12"><tspan
                 sodipodi:role="line"
                 id="tspan12"
                 style="fill:#000000;stroke:none;stroke-width:0.135054"
                 x="38.920334"
                 y="56.244118">δ1</tspan></text><text
               xml:space="preserve"
               style="font-style:normal;font-variant:normal;font-weight:normal;font-stretch:normal;font-size:1.68951px;font-family:Arial;-inkscape-font-specification:Arial;text-align:start;writing-mode:lr-tb;direction:ltr;text-anchor:start;fill:none;stroke:#918a6f;stroke-width:0.135054;stroke-dasharray:none;stroke-dashoffset:9.31138"
               x="74.906807"
               y="59.285233"
               id="text13"><tspan
                 sodipodi:role="line"
                 id="tspan13"
                 style="fill:#000000;stroke:none;stroke-width:0.135054"
                 x="74.906807"
                 y="59.285233">δ2</tspan></text><text
               xml:space="preserve"
               style="font-style:normal;font-variant:normal;font-weight:normal;font-stretch:normal;font-size:1.68951px;font-family:Arial;-inkscape-font-specification:Arial;text-align:start;writing-mode:lr-tb;direction:ltr;text-anchor:start;fill:none;stroke:#918a6f;stroke-width:0.135054;stroke-dasharray:none;stroke-dashoffset:9.31138"
               x="79.468468"
               y="54.216713"
               id="text14"><tspan
                 sodipodi:role="line"
                 id="tspan14"
                 style="fill:#000000;stroke:none;stroke-width:0.135054"
                 x="79.468468"
                 y="54.216713">δ3</tspan></text><text
               xml:space="preserve"
               style="font-style:normal;font-variant:normal;font-weight:normal;font-stretch:normal;font-size:1.68951px;font-family:Arial;-inkscape-font-specification:Arial;text-align:start;writing-mode:lr-tb;direction:ltr;text-anchor:start;fill:none;stroke:#918a6f;stroke-width:0.135054;stroke-dasharray:none;stroke-dashoffset:9.31138"
               x="37.413502"
               y="84.522713"
               id="text12-8"><tspan
                 sodipodi:role="line"
                 style="fill:#000000;stroke:none;stroke-width:0.135054"
                 x="37.413502"
                 y="84.522713"
                 id="tspan7">Differences in improvement</tspan><tspan
                 sodipodi:role="line"
                 style="fill:#000000;stroke:none;stroke-width:0.135054"
                 x="37.413502"
                 y="86.634598"
                 id="tspan25">due to recovery =</tspan><tspan
                 sodipodi:role="line"
                 style="fill:#000000;stroke:none;stroke-width:0.135054"
                 x="37.413502"
                 y="88.74649"
                 id="tspan24">(1 - δ1\δ2) - (1 - δ1\δ3)</tspan></text><text
               xml:space="preserve"
               style="font-size:1.68951px;font-family:Arial;-inkscape-font-specification:Arial;text-align:start;writing-mode:lr-tb;direction:ltr;text-anchor:start;fill:#000000;stroke-width:0.135054;stroke-dashoffset:9.31138"
               x="37.452702"
               y="79.836266"
               id="text8"><tspan
                 sodipodi:role="line"
                 style="stroke-width:0.135054"
                 x="37.452702"
                 y="79.836266"
                 id="tspan22-1">Improvement = </tspan><tspan
                 sodipodi:role="line"
                 style="stroke-width:0.135054"
                 x="37.452702"
                 y="81.948151"
                 id="tspan23">1 - Distance at T2 / Distance at T1</tspan></text></g></g></g></g><g
       id="g1"
       transform="matrix(0.90584256,0,0,0.90584256,7.7197147,12.304384)"><path
         d="m 164.16108,44.270205 c 0,-6.086737 -1.19895,-12.114289 -3.52824,-17.737701 -2.3293,-5.623413 -5.74363,-10.733324 -10.0476,-15.037298 -4.30398,-4.3039729 -9.41389,-7.718307 -15.0373,-10.0476004 -5.62342,-2.32929342 -11.65097,-3.5282482 -17.7377,-3.5282482 -6.08674,0 -12.11429,1.19895478 -17.7377,3.5282482 -5.623417,2.3292934 -10.733329,5.7436275 -15.037302,10.0476004 -4.303973,4.303974 -7.718307,9.413885 -10.047601,15.037298 -2.329293,5.623412 -3.528248,11.650964 -3.528248,17.737701 0,6.086737 1.198955,12.114287 3.528248,17.737699 2.329294,5.623413 5.743628,10.733326 10.047601,15.0373 4.303973,4.303974 9.413885,7.718308 15.037302,10.047599 5.62341,2.329292 11.65096,3.52825 17.7377,3.52825 6.08673,0 12.11428,-1.198958 17.7377,-3.52825 5.62341,-2.329291 10.73332,-5.743625 15.0373,-10.047599 4.30397,-4.303974 7.7183,-9.413887 10.0476,-15.0373 2.32929,-5.623412 3.52824,-11.650962 3.52824,-17.737699 m -46.35084,0 z"
         style="fill:none;stroke-width:0.352779"
         id="path2" /><path
         d="m 110.7,109.08 h 83.16"
         clip-path="url(#p472f974328)"
         style="opacity:0.355536;fill:none;stroke:#d3d3d3;stroke-width:0.506346;stroke-linecap:square"
         id="path3"
         transform="matrix(0.5573695,0,0,0.5573695,56.109433,-16.52766)" /><path
         d="M 110.7,109.08 184.33452,70.433621"
         clip-path="url(#p472f974328)"
         style="opacity:0.355536;fill:none;stroke:#d3d3d3;stroke-width:0.506346;stroke-linecap:square"
         id="path4"
         transform="matrix(0.5573695,0,0,0.5573695,56.109433,-16.52766)" /><path
         d="M 110.7,109.08 157.94026,40.640662"
         clip-path="url(#p472f974328)"
         style="opacity:0.355536;fill:none;stroke:#d3d3d3;stroke-width:0.506346;stroke-linecap:square"
         id="path5"
         transform="matrix(0.5573695,0,0,0.5573695,56.109433,-16.52766)" /><path
         d="M 110.7,109.08 81.211058,31.324049"
         clip-path="url(#p472f974328)"
         style="opacity:0.355536;fill:none;stroke:#d3d3d3;stroke-width:0.506346;stroke-linecap:square"
         id="path7"
         transform="matrix(0.5573695,0,0,0.5573695,56.109433,-16.52766)" /><path
         d="M 110.7,109.08 29.956478,89.178509"
         clip-path="url(#p472f974328)"
         style="opacity:0.355536;fill:none;stroke:#d3d3d3;stroke-width:0.506346;stroke-linecap:square"
         id="path9"
         transform="matrix(0.5573695,0,0,0.5573695,56.109433,-16.52766)" /><path
         d="M 110.7,109.08 29.956478,128.98149"
         clip-path="url(#p472f974328)"
         style="opacity:0.355536;fill:none;stroke:#d3d3d3;stroke-width:0.506346;stroke-linecap:square"
         id="path10"
         transform="matrix(0.5573695,0,0,0.5573695,56.109433,-16.52766)" /><path
         d="M 110.7,109.08 81.211058,186.83595"
         clip-path="url(#p472f974328)"
         style="opacity:0.355536;fill:none;stroke:#d3d3d3;stroke-width:0.506346;stroke-linecap:square"
         id="path12"
         transform="matrix(0.5573695,0,0,0.5573695,56.109433,-16.52766)" /><path
         d="m 110.7,109.08 10.02383,82.55367"
         clip-path="url(#p472f974328)"
         style="opacity:0.355536;fill:none;stroke:#d3d3d3;stroke-width:0.506346;stroke-linecap:square"
         id="path13"
         transform="matrix(0.5573695,0,0,0.5573695,56.109433,-16.52766)" /><path
         d="m 110.7,109.08 47.24026,68.43934"
         clip-path="url(#p472f974328)"
         style="opacity:0.355536;fill:none;stroke:#d3d3d3;stroke-width:0.506346;stroke-linecap:square"
         id="path14"
         transform="matrix(0.5573695,0,0,0.5573695,56.109433,-16.52766)" /><path
         d="m 119.1456,109.08 c 0,-1.10907 -0.21846,-2.20735 -0.64288,-3.23199 -0.42442,-1.02465 -1.04655,-1.95572 -1.83078,-2.73995 -0.78422,-0.78423 -1.7153,-1.40636 -2.73995,-1.83078 -1.02464,-0.42442 -2.12292,-0.64288 -3.23199,-0.64288 -1.10907,0 -2.20735,0.21846 -3.23199,0.64288 -1.02465,0.42442 -1.95572,1.04655 -2.73995,1.83078 -0.78423,0.78423 -1.40636,1.7153 -1.83078,2.73995 -0.42442,1.02464 -0.64288,2.12292 -0.64288,3.23199 0,1.10907 0.21846,2.20735 0.64288,3.23199 0.42442,1.02465 1.04655,1.95572 1.83078,2.73995 0.78423,0.78423 1.7153,1.40636 2.73995,1.83078 1.02464,0.42442 2.12292,0.64288 3.23199,0.64288 1.10907,0 2.20735,-0.21846 3.23199,-0.64288 1.02465,-0.42442 1.95573,-1.04655 2.73995,-1.83078 0.78423,-0.78423 1.40636,-1.7153 1.83078,-2.73995 0.42442,-1.02464 0.64288,-2.12292 0.64288,-3.23199"
         clip-path="url(#p472f974328)"
         style="opacity:0.355536;fill:none;stroke:#d3d3d3;stroke-width:0.506346;stroke-linecap:square"
         id="path16"
         transform="matrix(0.5573695,0,0,0.5573695,56.109433,-16.52766)" /><text
         id="text17"
         style="font-style:normal;font-variant:normal;font-weight:normal;font-stretch:normal;font-size:2.66804px;font-family:Arial;-inkscape-font-specification:'Arial, Normal';font-variant-ligatures:normal;font-variant-caps:normal;font-variant-numeric:normal;font-variant-east-asian:normal;stroke-width:0.352779"
         x="122.15923"
         y="41.361019"><tspan
           style="font-style:normal;font-variant:normal;font-weight:normal;font-stretch:normal;font-size:2.66804px;line-height:normal;font-family:Arial;-inkscape-font-specification:'Arial, Normal';font-variant-ligatures:normal;font-variant-caps:normal;font-variant-numeric:normal;font-variant-east-asian:normal;stroke-width:0.352779"
           x="122.15923"
           y="40.804001"
           id="tspan16">−100%</tspan></text><path
         d="m 146.21348,109.08 c 0,-4.66359 -0.91863,-9.281826 -2.70331,-13.590419 -1.78467,-4.308593 -4.4007,-8.223747 -7.69835,-11.521401 -3.29765,-3.297654 -7.21281,-5.913676 -11.5214,-7.698354 -4.30859,-1.784677 -8.92683,-2.703302 -13.59042,-2.703302 -4.66359,0 -9.28183,0.918625 -13.590419,2.703302 -4.308593,1.784678 -8.223747,4.4007 -11.521401,7.698354 -3.297654,3.297654 -5.913676,7.212808 -7.698354,11.521401 -1.784677,4.308593 -2.703302,8.926829 -2.703302,13.590419 0,4.66359 0.918625,9.28183 2.703302,13.59042 1.784678,4.30859 4.4007,8.22375 7.698354,11.5214 3.297654,3.29765 7.212808,5.91368 11.521401,7.69835 4.308589,1.78468 8.926829,2.70331 13.590419,2.70331 4.66359,0 9.28183,-0.91863 13.59042,-2.70331 4.30859,-1.78467 8.22375,-4.4007 11.5214,-7.69835 3.29765,-3.29765 5.91368,-7.21281 7.69835,-11.5214 1.78468,-4.30859 2.70331,-8.92683 2.70331,-13.59042"
         clip-path="url(#p472f974328)"
         style="opacity:0.355536;fill:none;stroke:#666666;stroke-width:0.506346;stroke-linecap:square"
         id="path21"
         transform="matrix(0.5573695,0,0,0.5573695,56.109433,-16.52766)" /><text
         id="text22"
         style="font-style:normal;font-variant:normal;font-weight:normal;font-stretch:normal;font-size:2.66804px;font-family:Arial;-inkscape-font-specification:'Arial, Normal';font-variant-ligatures:normal;font-variant-caps:normal;font-variant-numeric:normal;font-variant-east-asian:normal;stroke-width:0.352779"
         x="136.09763"
         y="35.587547"><tspan
           style="font-style:normal;font-variant:normal;font-weight:normal;font-stretch:normal;font-size:2.66804px;line-height:normal;font-family:Arial;-inkscape-font-specification:'Arial, Normal';font-variant-ligatures:normal;font-variant-caps:normal;font-variant-numeric:normal;font-variant-east-asian:normal;stroke-width:0.352779"
           x="136.09763"
           y="35.134686"
           id="tspan22">0</tspan></text><path
         d="m 173.28135,109.08 c 0,-8.21811 -1.61879,-16.356304 -4.76372,-23.948845 C 165.37269,77.538613 160.76278,70.639383 154.9517,64.828304 149.14062,59.017224 142.24139,54.407306 134.64884,51.262373 127.0563,48.117439 118.91811,46.498651 110.7,46.498651 c -8.21811,0 -16.356304,1.618788 -23.948845,4.763722 -7.592542,3.144933 -14.491772,7.754851 -20.302851,13.565931 -5.81108,5.811079 -10.420998,12.710309 -13.565931,20.302851 -3.144934,7.592541 -4.763722,15.730735 -4.763722,23.948845 0,8.21811 1.618788,16.3563 4.763722,23.94884 3.144933,7.59255 7.754851,14.49178 13.565931,20.30286 5.811079,5.81108 12.710309,10.42099 20.302851,13.56593 7.592541,3.14493 15.730735,4.76372 23.948845,4.76372 8.21811,0 16.3563,-1.61879 23.94884,-4.76372 7.59255,-3.14494 14.49178,-7.75485 20.30286,-13.56593 5.81108,-5.81108 10.42099,-12.71031 13.56593,-20.30286 3.14493,-7.59254 4.76372,-15.73073 4.76372,-23.94884"
         clip-path="url(#p472f974328)"
         style="opacity:0.355536;fill:none;stroke:#d3d3d3;stroke-width:0.506346;stroke-linecap:square"
         id="path26"
         transform="matrix(0.5573695,0,0,0.5573695,56.109433,-16.52766)" /><text
         id="text28"
         style="font-style:normal;font-variant:normal;font-weight:normal;font-stretch:normal;font-size:2.66804px;font-family:Arial;-inkscape-font-specification:'Arial, Normal';font-variant-ligatures:normal;font-variant-caps:normal;font-variant-numeric:normal;font-variant-east-asian:normal;stroke-width:0.352779"
         x="150.03603"
         y="29.814077"><tspan
           style="font-style:normal;font-variant:normal;font-weight:normal;font-stretch:normal;font-size:2.66804px;line-height:normal;font-family:Arial;-inkscape-font-specification:'Arial, Normal';font-variant-ligatures:normal;font-variant-caps:normal;font-variant-numeric:normal;font-variant-east-asian:normal;stroke-width:0.352779"
           x="150.03603"
           y="29.257055"
           id="tspan27">+100%</tspan><tspan
           style="font-style:normal;font-variant:normal;font-weight:normal;font-stretch:normal;font-size:2.66804px;line-height:normal;font-family:Arial;-inkscape-font-specification:'Arial, Normal';font-variant-ligatures:normal;font-variant-caps:normal;font-variant-numeric:normal;font-variant-east-asian:normal;stroke-width:0.352779"
           x="156.33278"
           y="25.37254"
           id="tspan28" /></text><path
         d="M 179.2559,109.08 165.79556,80.16362 119.79537,95.903087 89.563642,53.348004 30.156084,89.227708 101.23032,111.41407 86.162012,173.78136 111.82672,118.35942 123.08581,127.02394 179.2559,109.08"
         clip-path="url(#p472f974328)"
         style="fill:none;stroke:#db5f57;stroke-width:0.632935;stroke-linecap:square"
         id="path32"
         transform="matrix(0.5573695,0,0,0.5573695,56.109433,-16.52766)"
         sodipodi:nodetypes="cccccccccc" /><path
         d="M 178.67724,109.08 167.66776,79.181011 116.86201,100.15279 91.461288,58.351685 43.367382,92.484 99.360209,111.87501 85.563293,175.36005 117.36654,163.9839 147.04133,161.72951 178.67724,109.08"
         clip-path="url(#p472f974328)"
         style="fill:none;stroke:#57d3db;stroke-width:0.632935;stroke-linecap:square"
         id="path33"
         transform="matrix(0.5573695,0,0,0.5573695,56.109433,-16.52766)"
         sodipodi:nodetypes="cccccccccc" /><text
         style="font-style:normal;font-variant:normal;font-weight:normal;font-stretch:normal;font-size:8.28158px;line-height:normal;font-family:Arial;-inkscape-font-specification:'Arial, Normal';font-variant-ligatures:normal;font-variant-caps:normal;font-variant-numeric:normal;font-variant-east-asian:normal;text-anchor:start;stroke-width:1.09502;stroke-linecap:butt;stroke-linejoin:round"
         x="337.86139"
         y="292.21649"
         id="text17-8-8"
         transform="matrix(0.32216555,0,0,0.32216555,12.047995,1.7631816)"><tspan
           sodipodi:role="line"
           id="tspan4-4"
           x="337.86139"
           y="292.21649"
           style="stroke-width:1.09502">Sleep</tspan></text><text
         xml:space="preserve"
         style="font-size:8.28161px;line-height:normal;font-family:Arial;-inkscape-font-specification:'Arial, Normal';text-align:center;text-decoration-color:#000000;text-anchor:middle;fill:#000000;stroke-width:1.09502;stroke-linejoin:round;-inkscape-stroke:none;stop-color:#000000"
         x="306.66232"
         y="31.643488"
         id="text21"
         transform="matrix(0.32216555,0,0,0.32216555,12.047995,1.7631816)"><tspan
           sodipodi:role="line"
           id="tspan20"
           style="stroke-width:1.09502"
           x="306.66232"
           y="31.643488">49%</tspan></text><text
         xml:space="preserve"
         style="font-size:8.28161px;line-height:normal;font-family:Arial;-inkscape-font-specification:'Arial, Normal';text-align:center;text-decoration-color:#000000;text-anchor:middle;fill:#000000;stroke-width:1.09502;stroke-linejoin:round;-inkscape-stroke:none;stop-color:#000000"
         x="305.32428"
         y="44.577843"
         id="text24"
         transform="matrix(0.32216555,0,0,0.32216555,12.047995,1.7631816)"><tspan
           sodipodi:role="line"
           id="tspan21"
           style="stroke-width:1.09502"
           x="305.32428"
           y="44.577843">13%</tspan></text><text
         style="font-style:normal;font-variant:normal;font-weight:normal;font-stretch:normal;font-size:8.28158px;line-height:normal;font-family:Arial;-inkscape-font-specification:'Arial, Normal';font-variant-ligatures:normal;font-variant-caps:normal;font-variant-numeric:normal;font-variant-east-asian:normal;text-anchor:start;stroke-width:1.09502;stroke-linecap:butt;stroke-linejoin:round"
         x="167.91013"
         y="171.32959"
         id="text19-3-0"
         transform="matrix(0.32216555,0,0,0.32216555,12.047995,1.7631816)">PCI</text><text
         style="font-style:normal;font-variant:normal;font-weight:normal;font-stretch:normal;font-size:8.28158px;line-height:normal;font-family:Arial;-inkscape-font-specification:'Arial, Normal';font-variant-ligatures:normal;font-variant-caps:normal;font-variant-numeric:normal;font-variant-east-asian:normal;text-anchor:start;stroke-width:1.09502;stroke-linecap:butt;stroke-linejoin:round"
         x="408.90009"
         y="8.4345264"
         id="text20-6"
         transform="matrix(0.32216555,0,0,0.32216555,12.047995,1.7631816)">FCIS</text><text
         style="font-style:normal;font-variant:normal;font-weight:normal;font-stretch:normal;font-size:8.28158px;line-height:normal;font-family:Arial;-inkscape-font-specification:'Arial, Normal';font-variant-ligatures:normal;font-variant-caps:normal;font-variant-numeric:normal;font-variant-east-asian:normal;text-anchor:start;stroke-width:1.09502;stroke-linecap:butt;stroke-linejoin:round"
         x="405.45493"
         y="270.39468"
         id="text22-6-4"
         transform="matrix(0.32216555,0,0,0.32216555,12.047995,1.7631816)">Gut species</text><text
         style="font-style:normal;font-variant:normal;font-weight:normal;font-stretch:normal;font-size:8.28158px;line-height:normal;font-family:Arial;-inkscape-font-specification:'Arial, Normal';font-variant-ligatures:normal;font-variant-caps:normal;font-variant-numeric:normal;font-variant-east-asian:normal;text-anchor:start;stroke-width:1.09502;stroke-linecap:butt;stroke-linejoin:round"
         x="460.92542"
         y="64.1185"
         id="text23-2"
         transform="matrix(0.32216555,0,0,0.32216555,12.047995,1.7631816)">Bayley</text><text
         style="font-style:normal;font-variant:normal;font-weight:normal;font-stretch:normal;font-size:8.28158px;line-height:normal;font-family:Arial;-inkscape-font-specification:'Arial, Normal';font-variant-ligatures:normal;font-variant-caps:normal;font-variant-numeric:normal;font-variant-east-asian:normal;text-anchor:start;stroke-width:1.09502;stroke-linecap:butt;stroke-linejoin:round"
         x="476.69202"
         y="134.96902"
         id="text25-9"
         transform="matrix(0.32216555,0,0,0.32216555,12.047995,1.7631816)">Anthropometrics</text><text
         style="font-style:normal;font-variant:normal;font-weight:normal;font-stretch:normal;font-size:8.28158px;line-height:normal;font-family:Arial;-inkscape-font-specification:'Arial, Normal';font-variant-ligatures:normal;font-variant-caps:normal;font-variant-numeric:normal;font-variant-east-asian:normal;text-anchor:start;stroke-width:1.09502;stroke-linecap:butt;stroke-linejoin:round"
         x="131.61754"
         y="95.539955"
         id="text26-7-3"
         transform="matrix(0.32216555,0,0,0.32216555,12.047995,1.7631816)">Gut pathways</text><text
         style="font-style:normal;font-variant:normal;font-weight:normal;font-stretch:normal;font-size:8.28158px;line-height:normal;font-family:Arial;-inkscape-font-specification:'Arial, Normal';font-variant-ligatures:normal;font-variant-caps:normal;font-variant-numeric:normal;font-variant-east-asian:normal;text-anchor:start;stroke-width:1.09502;stroke-linecap:butt;stroke-linejoin:round"
         x="259.57462"
         y="283.89087"
         id="text27-0"
         transform="matrix(0.32216555,0,0,0.32216555,12.047995,1.7631816)">PSS</text><text
         style="font-style:normal;font-variant:normal;font-weight:normal;font-stretch:normal;font-size:8.28158px;line-height:normal;font-family:Arial;-inkscape-font-specification:'Arial, Normal';font-variant-ligatures:normal;font-variant-caps:normal;font-variant-numeric:normal;font-variant-east-asian:normal;text-anchor:start;stroke-width:1.09502;stroke-linecap:butt;stroke-linejoin:round"
         x="227.25551"
         y="-12.100651"
         id="text29-1"
         transform="matrix(0.32216555,0,0,0.32216555,12.047995,1.7631816)">Head measurements</text><text
         xml:space="preserve"
         style="font-size:2.66805px;line-height:normal;font-family:Arial;-inkscape-font-specification:'Arial, Normal';text-align:start;text-decoration-color:#000000;text-anchor:start;fill:#000000;stroke-width:0.352777;stroke-linecap:butt;stroke-linejoin:round;-inkscape-stroke:none;stop-color:#000000"
         x="163.99948"
         y="-6.2922063"
         id="text19-5"><tspan
           sodipodi:role="line"
           id="tspan5-5"
           style="text-align:start;text-anchor:start;stroke-width:0.352778"
           x="163.99948"
           y="-6.2922063">Local Refeed</tspan><tspan
           sodipodi:role="line"
           style="text-align:start;text-anchor:start;stroke-width:0.352778"
           x="163.99948"
           y="-2.9571435"
           id="tspan19-4">Enhanced Refeed</tspan></text><path
         style="font-variation-settings:normal;opacity:1;fill:#db5f57;fill-opacity:1;stroke:#db5f57;stroke-width:1.27;stroke-linecap:butt;stroke-linejoin:miter;stroke-miterlimit:4;stroke-dasharray:none;stroke-dashoffset:0;stroke-opacity:1;stop-color:#000000;stop-opacity:1"
         d="m 154.94413,-7.2139 h 7.90294"
         id="path24" /><path
         style="font-variation-settings:normal;opacity:1;fill:#58d3db;fill-opacity:0.92549;stroke:#58d3db;stroke-width:1.27;stroke-linecap:butt;stroke-linejoin:miter;stroke-miterlimit:4;stroke-dasharray:none;stroke-dashoffset:0;stroke-opacity:0.92549;stop-color:#000000;stop-opacity:1"
         d="m 154.94413,-3.71208 h 7.90294"
         id="path25" /></g><text
       xml:space="preserve"
       style="font-size:2.82222px;font-family:Arial;-inkscape-font-specification:Arial;text-align:end;writing-mode:lr-tb;direction:ltr;text-anchor:end;fill:#000000;stroke-width:0.352777;stroke-dashoffset:9.31138"
       x="-10.624068"
       y="20.29929"
       id="text1"><tspan
         sodipodi:role="line"
         id="tspan1"
         style="font-weight:bold;font-size:2.82222px;stroke-width:0.352778"
         x="-10.624068"
         y="20.29929">a</tspan></text><text
       xml:space="preserve"
       style="font-size:2.82222px;font-family:Arial;-inkscape-font-specification:Arial;text-align:end;writing-mode:lr-tb;direction:ltr;text-anchor:end;fill:#000000;stroke-width:0.352777;stroke-dashoffset:9.31138"
       x="56.662945"
       y="7.6171789"
       id="text7"><tspan
         sodipodi:role="line"
         id="tspan2"
         style="font-weight:bold;font-size:2.82222px;stroke-width:0.352778"
         x="56.662945"
         y="7.6171789">b</tspan></text></g></svg>
