<?xml version="1.0" encoding="UTF-8" standalone="no"?>
<!-- Created with Inkscape (http://www.inkscape.org/) -->

<svg
   width="210mm"
   height="100mm"
   viewBox="0 0 210 100"
   version="1.1"
   id="svg2716"
   xml:space="preserve"
   inkscape:version="1.2.2 (b0a8486541, 2022-12-01)"
   sodipodi:docname="owl.svg"
   xmlns:inkscape="http://www.inkscape.org/namespaces/inkscape"
   xmlns:sodipodi="http://sodipodi.sourceforge.net/DTD/sodipodi-0.dtd"
   xmlns="http://www.w3.org/2000/svg"
   xmlns:svg="http://www.w3.org/2000/svg"><sodipodi:namedview
     id="namedview2718"
     pagecolor="#ffffff"
     bordercolor="#000000"
     borderopacity="0.25"
     inkscape:showpageshadow="2"
     inkscape:pageopacity="0.0"
     inkscape:pagecheckerboard="0"
     inkscape:deskcolor="#d1d1d1"
     inkscape:document-units="mm"
     showgrid="false"
     inkscape:zoom="1.5370248"
     inkscape:cx="351.97872"
     inkscape:cy="184.77256"
     inkscape:window-width="1588"
     inkscape:window-height="819"
     inkscape:window-x="0"
     inkscape:window-y="0"
     inkscape:window-maximized="1"
     inkscape:current-layer="layer1" /><defs
     id="defs2713"><style
       type="text/css"
       id="style3717">*{stroke-linejoin: round; stroke-linecap: butt}</style><clipPath
       id="p6872ff74b0"><path
         d="m 242.25253,126.4278 c 0,-13.37567 -2.63472,-26.621284 -7.75336,-38.978795 C 229.38052,75.091494 221.87748,63.862407 212.41945,54.404378 202.96142,44.946349 191.73234,37.443313 179.37483,32.324664 167.01732,27.206016 153.7717,24.5713 140.39603,24.5713 c -13.37567,0 -26.62128,2.634716 -38.97879,7.753364 C 89.059726,37.443313 77.830638,44.946349 68.372609,54.404378 58.91458,63.862407 51.411544,75.091494 46.292896,87.449005 41.174247,99.806516 38.539531,113.05213 38.539531,126.4278 c 0,13.37567 2.634716,26.62128 7.753365,38.97879 5.118648,12.35752 12.621684,23.5866 22.079713,33.04463 9.458029,9.45803 20.687117,16.96107 33.044631,22.07972 12.35751,5.11864 25.60312,7.75336 38.97879,7.75336 13.37567,0 26.62129,-2.63472 38.9788,-7.75336 12.35751,-5.11865 23.58659,-12.62169 33.04462,-22.07972 9.45803,-9.45803 16.96107,-20.68711 22.07972,-33.04463 5.11864,-12.35751 7.75336,-25.60312 7.75336,-38.97879 m -101.8565,0 c 0,0 0,0 0,0 0,0 0,0 0,0 0,0 0,0 0,0 0,0 0,0 0,0 0,0 0,0 0,0 0,0 0,0 0,0 0,0 0,0 0,0 0,0 0,0 0,0 0,0 0,0 0,0 0,0 0,0 0,0 0,0 0,0 0,0 0,0 0,0 0,0 0,0 0,0 0,0 0,0 0,0 0,0 0,0 0,0 0,0 0,0 0,0 0,0 z"
         id="path3864" /></clipPath><style
       type="text/css"
       id="style3980">*{stroke-linejoin: round; stroke-linecap: butt}</style><clipPath
       id="p10642e6903"><path
         d="m 242.25253,126.4278 c 0,-13.37567 -2.63472,-26.621284 -7.75336,-38.978795 C 229.38052,75.091494 221.87748,63.862407 212.41945,54.404378 202.96142,44.946349 191.73234,37.443313 179.37483,32.324664 167.01732,27.206016 153.7717,24.5713 140.39603,24.5713 c -13.37567,0 -26.62128,2.634716 -38.97879,7.753364 C 89.059726,37.443313 77.830638,44.946349 68.372609,54.404378 58.91458,63.862407 51.411544,75.091494 46.292896,87.449005 41.174247,99.806516 38.539531,113.05213 38.539531,126.4278 c 0,13.37567 2.634716,26.62128 7.753365,38.97879 5.118648,12.35752 12.621684,23.5866 22.079713,33.04463 9.458029,9.45803 20.687117,16.96107 33.044631,22.07972 12.35751,5.11864 25.60312,7.75336 38.97879,7.75336 13.37567,0 26.62129,-2.63472 38.9788,-7.75336 12.35751,-5.11865 23.58659,-12.62169 33.04462,-22.07972 9.45803,-9.45803 16.96107,-20.68711 22.07972,-33.04463 5.11864,-12.35751 7.75336,-25.60312 7.75336,-38.97879 m -101.8565,0 c 0,0 0,0 0,0 0,0 0,0 0,0 0,0 0,0 0,0 0,0 0,0 0,0 0,0 0,0 0,0 0,0 0,0 0,0 0,0 0,0 0,0 0,0 0,0 0,0 0,0 0,0 0,0 0,0 0,0 0,0 0,0 0,0 0,0 0,0 0,0 0,0 0,0 0,0 0,0 0,0 0,0 0,0 0,0 0,0 0,0 0,0 0,0 0,0 z"
         id="path4144" /></clipPath></defs><g
     inkscape:label="Layer 1"
     inkscape:groupmode="layer"
     id="layer1"><g
       id="figure_1"
       transform="matrix(0.35277778,0,0,0.35277778,4.4343194,5.4240351)"><g
         id="patch_1"><path
           d="M 0,250.79961 H 287.19513 V 0 H 0 Z"
           style="fill:none"
           id="path3721" /></g><g
         id="axes_1"><g
           id="patch_2"><path
             d="m 242.25253,126.4278 c 0,-13.37567 -2.63472,-26.621284 -7.75336,-38.978795 C 229.38052,75.091494 221.87748,63.862407 212.41945,54.404378 202.96142,44.946349 191.73234,37.443313 179.37483,32.324664 167.01732,27.206016 153.7717,24.5713 140.39603,24.5713 c -13.37567,0 -26.62128,2.634716 -38.97879,7.753364 C 89.059726,37.443313 77.830638,44.946349 68.372609,54.404378 58.91458,63.862407 51.411544,75.091494 46.292896,87.449005 41.174247,99.806516 38.539531,113.05213 38.539531,126.4278 c 0,13.37567 2.634716,26.62128 7.753365,38.97879 5.118648,12.35752 12.621684,23.5866 22.079713,33.04463 9.458029,9.45803 20.687117,16.96107 33.044631,22.07972 12.35751,5.11864 25.60312,7.75336 38.97879,7.75336 13.37567,0 26.62129,-2.63472 38.9788,-7.75336 12.35751,-5.11865 23.58659,-12.62169 33.04462,-22.07972 9.45803,-9.45803 16.96107,-20.68711 22.07972,-33.04463 5.11864,-12.35751 7.75336,-25.60312 7.75336,-38.97879 m -101.8565,0 c 0,0 0,0 0,0 0,0 0,0 0,0 0,0 0,0 0,0 0,0 0,0 0,0 0,0 0,0 0,0 0,0 0,0 0,0 0,0 0,0 0,0 0,0 0,0 0,0 0,0 0,0 0,0 0,0 0,0 0,0 0,0 0,0 0,0 0,0 0,0 0,0 0,0 0,0 0,0 0,0 0,0 0,0 0,0 0,0 0,0 0,0 0,0 0,0 z"
             style="fill:none"
             id="path3724" /></g><g
           id="patch_3"><path
             d="m 188.55193,126.4278 -16.74886,-31.407044 -31.40704,17.460874 -13.16664,0.77953 -3.20688,13.16664 11.37778,4.99574 4.99574,22.7207 51.4231,23.70665 z"
             clip-path="url(#p6872ff74b0)"
             style="opacity:0.1;fill:#db5f57;stroke:#db5f57;stroke-linejoin:miter"
             id="path3727" /></g><g
           id="patch_4"><path
             d="m 173.11553,126.4278 -29.44571,-3.27379 -3.27379,-93.952869 -32.74894,64.477718 -19.890499,32.748941 21.556029,31.08341 31.08341,2.7919 25.72869,-8.14662 z"
             clip-path="url(#p6872ff74b0)"
             style="opacity:0.1;fill:#57d3db;stroke:#57d3db;stroke-linejoin:miter"
             id="path3730" /></g><g
           id="matplotlib.axis_1"><g
             id="xtick_1"><g
               id="line2d_1"><path
                 d="m 140.39603,126.4278 h 101.8565"
                 clip-path="url(#p6872ff74b0)"
                 style="fill:none;stroke:#b0b0b0;stroke-width:0.8;stroke-linecap:square"
                 id="path3733" /></g><g
               id="text_1"><text
                 style="font-size:6px;font-family:Arial, sans-serif;text-anchor:middle"
                 x="254.75253"
                 y="128.01546"
                 id="text3736">ADHD_PRS</text></g></g><g
             id="xtick_2"><g
               id="line2d_2"><path
                 d="M 140.39603,126.4278 212.41945,54.404378"
                 clip-path="url(#p6872ff74b0)"
                 style="fill:none;stroke:#b0b0b0;stroke-width:0.8;stroke-linecap:square"
                 id="path3740" /></g><g
               id="text_2"><text
                 style="font-size:6px;font-family:Arial, sans-serif;text-anchor:middle"
                 x="221.25829"
                 y="47.153198"
                 id="text3743">BMI_PRS</text></g></g><g
             id="xtick_3"><g
               id="line2d_3"><path
                 d="M 140.39603,126.4278 V 24.5713"
                 clip-path="url(#p6872ff74b0)"
                 style="fill:none;stroke:#b0b0b0;stroke-width:0.8;stroke-linecap:square"
                 id="path3747" /></g><g
               id="text_3"><text
                 style="font-size:6px;font-family:Arial, sans-serif;text-anchor:middle"
                 x="140.39603"
                 y="13.658956"
                 id="text3750">EA_PRS</text></g></g><g
             id="xtick_4"><g
               id="line2d_4"><path
                 d="M 140.39603,126.4278 68.372609,54.404378"
                 clip-path="url(#p6872ff74b0)"
                 style="fill:none;stroke:#b0b0b0;stroke-width:0.8;stroke-linecap:square"
                 id="path3754" /></g><g
               id="text_4"><text
                 style="font-size:6px;font-family:Arial, sans-serif;text-anchor:middle"
                 x="59.533775"
                 y="47.118042"
                 id="text3757">Height_PRS</text></g></g><g
             id="xtick_5"><g
               id="line2d_5"><path
                 d="M 140.39603,126.4278 H 38.539531"
                 clip-path="url(#p6872ff74b0)"
                 style="fill:none;stroke:#b0b0b0;stroke-width:0.8;stroke-linecap:square"
                 id="path3761" /></g><g
               id="text_5"><text
                 style="font-size:6px;font-family:Arial, sans-serif;text-anchor:middle"
                 x="26.039532"
                 y="128.01546"
                 id="text3764">IBD_CD_PRS</text></g></g><g
             id="xtick_6"><g
               id="line2d_6"><path
                 d="M 140.39603,126.4278 68.372609,198.45122"
                 clip-path="url(#p6872ff74b0)"
                 style="fill:none;stroke:#b0b0b0;stroke-width:0.8;stroke-linecap:square"
                 id="path3768" /></g><g
               id="text_6"><text
                 style="font-size:6px;font-family:Arial, sans-serif;text-anchor:middle"
                 x="59.533775"
                 y="208.87772"
                 id="text3771">IBD_UC_PRS</text></g></g><g
             id="xtick_7"><g
               id="line2d_7"><path
                 d="M 140.39603,126.4278 V 228.2843"
                 clip-path="url(#p6872ff74b0)"
                 style="fill:none;stroke:#b0b0b0;stroke-width:0.8;stroke-linecap:square"
                 id="path3775" /></g><g
               id="text_7"><text
                 style="font-size:6px;font-family:Arial, sans-serif;text-anchor:middle"
                 x="140.39603"
                 y="242.33681"
                 id="text3778">Intelligent_PRS</text></g></g><g
             id="xtick_8"><g
               id="line2d_8"><path
                 d="m 140.39603,126.4278 72.02342,72.02342"
                 clip-path="url(#p6872ff74b0)"
                 style="fill:none;stroke:#b0b0b0;stroke-width:0.8;stroke-linecap:square"
                 id="path3782" /></g><g
               id="text_8"><text
                 style="font-size:6px;font-family:Arial, sans-serif;text-anchor:middle"
                 x="221.25829"
                 y="208.87772"
                 id="text3785">NAFLD_PRS</text></g></g></g><g
           id="matplotlib.axis_2"><g
             id="ytick_1"><g
               id="line2d_9"><path
                 d="m 153.01823,126.4278 c 0,-1.65753 -0.3265,-3.29895 -0.96081,-4.83031 -0.63431,-1.53135 -1.5641,-2.92288 -2.73615,-4.09493 -1.17205,-1.17205 -2.56357,-2.10184 -4.09493,-2.73615 -1.53136,-0.63431 -3.17278,-0.96081 -4.83031,-0.96081 -1.65753,0 -3.29895,0.3265 -4.8303,0.96081 -1.53136,0.63431 -2.92289,1.5641 -4.09494,2.73615 -1.17205,1.17205 -2.10184,2.56358 -2.73615,4.09493 -0.63431,1.53136 -0.9608,3.17278 -0.9608,4.83031 0,1.65753 0.32649,3.29895 0.9608,4.83031 0.63431,1.53135 1.5641,2.92288 2.73615,4.09493 1.17205,1.17205 2.56358,2.10184 4.09494,2.73615 1.53135,0.63431 3.17277,0.96081 4.8303,0.96081 1.65753,0 3.29895,-0.3265 4.83031,-0.96081 1.53136,-0.63431 2.92288,-1.5641 4.09493,-2.73615 1.17205,-1.17205 2.10184,-2.56358 2.73615,-4.09493 0.63431,-1.53136 0.96081,-3.17278 0.96081,-4.83031"
                 clip-path="url(#p6872ff74b0)"
                 style="fill:none;stroke:#b0b0b0;stroke-width:0.8;stroke-linecap:square"
                 id="path3790" /></g><g
               id="text_9"><text
                 style="font-size:6px;font-family:Arial, sans-serif;text-anchor:start"
                 x="152.05742"
                 y="120.40499"
                 id="text3793">-0.10</text></g></g><g
             id="ytick_2"><g
               id="line2d_10"><path
                 d="m 166.54443,126.4278 c 0,-3.43378 -0.67638,-6.83416 -1.99043,-10.00656 -1.31405,-3.1724 -3.24021,-6.05511 -5.66826,-8.48315 -2.42804,-2.42805 -5.31075,-4.35421 -8.48315,-5.66826 -3.1724,-1.31405 -6.57278,-1.99043 -10.00656,-1.99043 -3.43378,0 -6.83416,0.67638 -10.00656,1.99043 -3.1724,1.31405 -6.0551,3.24021 -8.48315,5.66826 -2.42805,2.42804 -4.35421,5.31075 -5.66826,8.48315 -1.31405,3.1724 -1.99043,6.57278 -1.99043,10.00656 0,3.43378 0.67638,6.83416 1.99043,10.00656 1.31405,3.1724 3.24021,6.05511 5.66826,8.48315 2.42805,2.42805 5.31075,4.35421 8.48315,5.66826 3.1724,1.31405 6.57278,1.99043 10.00656,1.99043 3.43378,0 6.83416,-0.67638 10.00656,-1.99043 3.1724,-1.31405 6.05511,-3.24021 8.48315,-5.66826 2.42805,-2.42804 4.35421,-5.31075 5.66826,-8.48315 1.31405,-3.1724 1.99043,-6.57278 1.99043,-10.00656"
                 clip-path="url(#p6872ff74b0)"
                 style="fill:none;stroke:#b0b0b0;stroke-width:0.8;stroke-linecap:square"
                 id="path3797" /></g><g
               id="text_10"><text
                 style="font-size:6px;font-family:Arial, sans-serif;text-anchor:start"
                 x="164.554"
                 y="115.22874"
                 id="text3800">-0.05</text></g></g><g
             id="ytick_3"><g
               id="line2d_11"><path
                 d="m 180.07064,126.4278 c 0,-5.21002 -1.02626,-10.36938 -3.02005,-15.18281 -1.99379,-4.81344 -4.91633,-9.18733 -8.60038,-12.871374 -3.68404,-3.684042 -8.05793,-6.606585 -12.87136,-8.600374 -4.81344,-1.993789 -9.9728,-3.02005 -15.18282,-3.02005 -5.21002,0 -10.36938,1.026261 -15.18281,3.02005 -4.81344,1.993789 -9.18733,4.916332 -12.87137,8.600374 -3.68404,3.684044 -6.60659,8.057934 -8.60038,12.871374 -1.99379,4.81343 -3.02005,9.97279 -3.02005,15.18281 0,5.21002 1.02626,10.36938 3.02005,15.18281 1.99379,4.81344 4.91634,9.18733 8.60038,12.87137 3.68404,3.68405 8.05793,6.60659 12.87137,8.60038 4.81343,1.99379 9.97279,3.02005 15.18281,3.02005 5.21002,0 10.36938,-1.02626 15.18282,-3.02005 4.81343,-1.99379 9.18732,-4.91633 12.87136,-8.60038 3.68405,-3.68404 6.60659,-8.05793 8.60038,-12.87137 1.99379,-4.81343 3.02005,-9.97279 3.02005,-15.18281"
                 clip-path="url(#p6872ff74b0)"
                 style="fill:none;stroke:#b0b0b0;stroke-width:0.8;stroke-linecap:square"
                 id="path3804" /></g><g
               id="text_11"><text
                 style="font-size:6px;font-family:Arial, sans-serif;text-anchor:start"
                 x="177.05058"
                 y="110.05248"
                 id="text3807">0.00</text></g></g><g
             id="ytick_4"><g
               id="line2d_12"><path
                 d="m 193.59684,126.4278 c 0,-6.98627 -1.37614,-13.9046 -4.04967,-20.35907 -2.67353,-6.454469 -6.59245,-12.319549 -11.53248,-17.259586 -4.94004,-4.940036 -10.80512,-8.858958 -17.25959,-11.532486 -6.45447,-2.673529 -13.3728,-4.049671 -20.35907,-4.049671 -6.98627,0 -13.9046,1.376142 -20.35907,4.049671 -6.45447,2.673528 -12.31955,6.59245 -17.25958,11.532486 -4.940041,4.940037 -8.858963,10.805117 -11.532491,17.259586 -2.673529,6.45447 -4.049671,13.3728 -4.049671,20.35907 0,6.98627 1.376142,13.9046 4.049671,20.35907 2.673528,6.45447 6.59245,12.31955 11.532491,17.25959 4.94003,4.94003 10.80511,8.85895 17.25958,11.53248 6.45447,2.67353 13.3728,4.04967 20.35907,4.04967 6.98627,0 13.9046,-1.37614 20.35907,-4.04967 6.45447,-2.67353 12.31955,-6.59245 17.25959,-11.53248 4.94003,-4.94004 8.85895,-10.80512 11.53248,-17.25959 2.67353,-6.45447 4.04967,-13.3728 4.04967,-20.35907"
                 clip-path="url(#p6872ff74b0)"
                 style="fill:none;stroke:#b0b0b0;stroke-width:0.8;stroke-linecap:square"
                 id="path3811" /></g><g
               id="text_12"><text
                 style="font-size:6px;font-family:Arial, sans-serif;text-anchor:start"
                 x="189.54718"
                 y="104.87623"
                 id="text3814">0.05</text></g></g><g
             id="ytick_5"><g
               id="line2d_13"><path
                 d="m 207.12305,126.4278 c 0,-8.76251 -1.72602,-17.43982 -5.07929,-25.53532 -3.35327,-8.09551 -8.26857,-15.451776 -14.4646,-21.647807 -6.19603,-6.196032 -13.5523,-11.111332 -21.6478,-14.4646 -8.09551,-3.353268 -16.77282,-5.079292 -25.53533,-5.079292 -8.76251,0 -17.43982,1.726024 -25.53532,5.079292 -8.09551,3.353268 -15.451775,8.268568 -21.647806,14.4646 -6.196032,6.196031 -11.111331,13.552297 -14.464599,21.647807 -3.353269,8.0955 -5.079292,16.77281 -5.079292,25.53532 0,8.76251 1.726023,17.43982 5.079292,25.53532 3.353268,8.09551 8.268567,15.45178 14.464599,21.64781 6.196031,6.19603 13.552296,11.11133 21.647806,14.4646 8.0955,3.35326 16.77281,5.07929 25.53532,5.07929 8.76251,0 17.43982,-1.72603 25.53533,-5.07929 8.0955,-3.35327 15.45177,-8.26857 21.6478,-14.4646 6.19603,-6.19603 11.11133,-13.5523 14.4646,-21.64781 3.35327,-8.0955 5.07929,-16.77281 5.07929,-25.53532"
                 clip-path="url(#p6872ff74b0)"
                 style="fill:none;stroke:#b0b0b0;stroke-width:0.8;stroke-linecap:square"
                 id="path3818" /></g><g
               id="text_13"><text
                 style="font-size:6px;font-family:Arial, sans-serif;text-anchor:start"
                 x="202.04376"
                 y="99.699974"
                 id="text3821">0.10</text></g></g><g
             id="ytick_6"><g
               id="line2d_14"><path
                 d="m 220.64925,126.4278 c 0,-10.53876 -2.0759,-20.97504 -6.10891,-30.711579 -4.03301,-9.736542 -9.94468,-18.583994 -17.39671,-26.03602 -7.45203,-7.452026 -16.29948,-13.363704 -26.03602,-17.396712 -9.73654,-4.033008 -20.17282,-6.108913 -30.71158,-6.108913 -10.53876,0 -20.97504,2.075905 -30.71158,6.108913 -9.73654,4.033008 -18.583991,9.944686 -26.036018,17.396712 -7.452026,7.452026 -13.363704,16.299478 -17.396712,26.03602 -4.033008,9.736539 -6.108913,20.172819 -6.108913,30.711579 0,10.53876 2.075905,20.97504 6.108913,30.71158 4.033008,9.73654 9.944686,18.58399 17.396712,26.03602 7.452027,7.45202 16.299478,13.3637 26.036018,17.39671 9.73654,4.03301 20.17282,6.10891 30.71158,6.10891 10.53876,0 20.97504,-2.0759 30.71158,-6.10891 9.73654,-4.03301 18.58399,-9.94469 26.03602,-17.39671 7.45203,-7.45203 13.3637,-16.29948 17.39671,-26.03602 4.03301,-9.73654 6.10891,-20.17282 6.10891,-30.71158"
                 clip-path="url(#p6872ff74b0)"
                 style="fill:none;stroke:#b0b0b0;stroke-width:0.8;stroke-linecap:square"
                 id="path3825" /></g><g
               id="text_14"><text
                 style="font-size:6px;font-family:Arial, sans-serif;text-anchor:start"
                 x="214.54034"
                 y="94.52372"
                 id="text3828">0.15</text></g></g><g
             id="ytick_7"><g
               id="line2d_15"><path
                 d="m 234.17546,126.4278 c 0,-12.315 -2.42579,-24.51026 -7.13853,-35.887834 C 222.32418,79.162388 215.41612,68.823751 206.7081,60.115729 198.00008,51.407708 187.66144,44.499652 176.28386,39.786904 164.90629,35.074157 152.71103,32.64837 140.39603,32.64837 c -12.315,0 -24.51026,2.425787 -35.88783,7.138534 C 93.130619,44.499652 82.791982,51.407708 74.083961,60.115729 65.375939,68.823751 58.467883,79.162388 53.755136,90.539966 49.042389,101.91754 46.616602,114.1128 46.616602,126.4278 c 0,12.315 2.425787,24.51026 7.138534,35.88783 4.712747,11.37758 11.620803,21.71622 20.328825,30.42424 8.708021,8.70802 19.046658,15.61608 30.424239,20.32883 11.37757,4.71274 23.57283,7.13853 35.88783,7.13853 12.315,0 24.51026,-2.42579 35.88783,-7.13853 11.37758,-4.71275 21.71622,-11.62081 30.42424,-20.32883 8.70802,-8.70802 15.61608,-19.04666 20.32883,-30.42424 4.71274,-11.37757 7.13853,-23.57283 7.13853,-35.88783"
                 clip-path="url(#p6872ff74b0)"
                 style="fill:none;stroke:#b0b0b0;stroke-width:0.8;stroke-linecap:square"
                 id="path3832" /></g><g
               id="text_15"><text
                 style="font-size:6px;font-family:Arial, sans-serif;text-anchor:start"
                 x="227.03693"
                 y="89.347466"
                 id="text3835">0.20</text></g></g></g><g
           id="line2d_16"><path
             d="m 188.55193,126.4278 -16.74886,-31.407044 -31.40704,17.460874 -13.16664,0.77953 -3.20688,13.16664 11.37778,4.99574 4.99574,22.7207 51.4231,23.70665 -3.2672,-51.42309"
             clip-path="url(#p6872ff74b0)"
             style="fill:none;stroke:#db5f57;stroke-width:2;stroke-linecap:square"
             id="path3840" /></g><g
           id="line2d_17"><path
             d="m 173.11553,126.4278 -29.44571,-3.27379 -3.27379,-93.952869 -32.74894,64.477718 -19.890499,32.748941 21.556029,31.08341 31.08341,2.7919 25.72869,-8.14662 6.99081,-25.72869"
             clip-path="url(#p6872ff74b0)"
             style="fill:none;stroke:#57d3db;stroke-width:2;stroke-linecap:square"
             id="path3843" /></g><g
           id="patch_5"><path
             d="m 242.25253,126.4278 c 0,-13.37567 -2.63472,-26.621284 -7.75336,-38.978795 C 229.38052,75.091494 221.87748,63.862407 212.41945,54.404378 202.96142,44.946349 191.73234,37.443313 179.37483,32.324664 167.01732,27.206016 153.7717,24.5713 140.39603,24.5713 c -13.37567,0 -26.62128,2.634716 -38.97879,7.753364 C 89.059726,37.443313 77.830638,44.946349 68.372609,54.404378 58.91458,63.862407 51.411544,75.091494 46.292896,87.449005 41.174247,99.806516 38.539531,113.05213 38.539531,126.4278 c 0,13.37567 2.634716,26.62128 7.753365,38.97879 5.118648,12.35752 12.621684,23.5866 22.079713,33.04463 9.458029,9.45803 20.687117,16.96107 33.044631,22.07972 12.35751,5.11864 25.60312,7.75336 38.97879,7.75336 13.37567,0 26.62129,-2.63472 38.9788,-7.75336 12.35751,-5.11865 23.58659,-12.62169 33.04462,-22.07972 9.45803,-9.45803 16.96107,-20.68711 22.07972,-33.04463 5.11864,-12.35751 7.75336,-25.60312 7.75336,-38.97879"
             style="fill:none;stroke:#000000;stroke-width:0.4;stroke-linecap:square;stroke-linejoin:miter"
             id="path3846" /></g><g
           id="legend_1"><g
             id="line2d_18"><path
               d="m 231.45326,12.42 h 4.5 4.5"
               style="fill:none;stroke:#db5f57;stroke-width:2;stroke-linecap:square"
               id="path3849" /></g><g
             id="text_16"><text
               style="font-size:6px;font-family:Arial, sans-serif;text-anchor:start"
               x="245.25325"
               y="15.24"
               id="text3852">No recovery</text></g><g
             id="line2d_19"><path
               d="m 231.45326,22.74 h 4.5 4.5"
               style="fill:none;stroke:#57d3db;stroke-width:2;stroke-linecap:square"
               id="path3855" /></g><g
             id="text_17"><text
               style="font-size:6px;font-family:Arial, sans-serif;text-anchor:start"
               x="245.25325"
               y="25.559999"
               id="text3858">Recovered</text></g></g></g></g><g
       id="figure_1-5"
       transform="matrix(0.35277778,0,0,0.35277778,106.03438,5.4240351)"><g
         id="patch_1-5"><path
           d="M 0,250.79961 H 287.19513 V 0 H 0 Z"
           style="fill:none"
           id="path3984" /></g><g
         id="axes_1-4"><g
           id="patch_2-7"><path
             d="m 242.25253,126.4278 c 0,-13.37567 -2.63472,-26.621284 -7.75336,-38.978795 C 229.38052,75.091494 221.87748,63.862407 212.41945,54.404378 202.96142,44.946349 191.73234,37.443313 179.37483,32.324664 167.01732,27.206016 153.7717,24.5713 140.39603,24.5713 c -13.37567,0 -26.62128,2.634716 -38.97879,7.753364 C 89.059726,37.443313 77.830638,44.946349 68.372609,54.404378 58.91458,63.862407 51.411544,75.091494 46.292896,87.449005 41.174247,99.806516 38.539531,113.05213 38.539531,126.4278 c 0,13.37567 2.634716,26.62128 7.753365,38.97879 5.118648,12.35752 12.621684,23.5866 22.079713,33.04463 9.458029,9.45803 20.687117,16.96107 33.044631,22.07972 12.35751,5.11864 25.60312,7.75336 38.97879,7.75336 13.37567,0 26.62129,-2.63472 38.9788,-7.75336 12.35751,-5.11865 23.58659,-12.62169 33.04462,-22.07972 9.45803,-9.45803 16.96107,-20.68711 22.07972,-33.04463 5.11864,-12.35751 7.75336,-25.60312 7.75336,-38.97879 m -101.8565,0 c 0,0 0,0 0,0 0,0 0,0 0,0 0,0 0,0 0,0 0,0 0,0 0,0 0,0 0,0 0,0 0,0 0,0 0,0 0,0 0,0 0,0 0,0 0,0 0,0 0,0 0,0 0,0 0,0 0,0 0,0 0,0 0,0 0,0 0,0 0,0 0,0 0,0 0,0 0,0 0,0 0,0 0,0 0,0 0,0 0,0 0,0 0,0 0,0 z"
             style="fill:none"
             id="path3987" /></g><g
           id="patch_3-6"><path
             d="m 180.87265,126.4278 8.48377,-48.960394 -48.96039,-23.185454 -31.56287,40.582978 -53.262728,31.56287 40.775865,44.04973 44.049733,25.64005 25.76675,-43.92303 z"
             clip-path="url(#p10642e6903)"
             style="opacity:0.1;fill:#db5f57;stroke:#db5f57;stroke-linejoin:miter"
             id="path3990" /></g><g
           id="patch_4-5"><path
             d="m 220.26804,126.4278 -36.01726,-43.854753 -43.85475,7.933241 -20.44163,15.479882 -18.85054,20.44163 -6.606008,45.89818 45.898178,6.05563 28.4485,-23.50531 z"
             clip-path="url(#p10642e6903)"
             style="opacity:0.1;fill:#91db57;stroke:#91db57;stroke-linejoin:miter"
             id="path3993" /></g><g
           id="patch_5-6"><path
             d="M 208.37577,126.4278 181.2985,85.52533 140.39603,77.463211 71.646401,57.67817 l 64.119789,68.74963 -17.94908,22.57892 22.57892,12.28711 42.50153,7.6355 z"
             clip-path="url(#p10642e6903)"
             style="opacity:0.1;fill:#57d3db;stroke:#57d3db;stroke-linejoin:miter"
             id="path3996" /></g><g
           id="patch_6"><path
             d="m 166.74514,126.4278 -4.69222,-21.65689 -21.65689,-33.180542 -26.32717,28.510252 -54.196926,26.32718 42.831446,37.69265 37.69265,18.3049 44.92247,-11.07509 z"
             clip-path="url(#p10642e6903)"
             style="opacity:0.1;fill:#a157db;stroke:#a157db;stroke-linejoin:miter"
             id="path3999" /></g><g
           id="matplotlib.axis_1-9"><g
             id="xtick_1-3"><g
               id="line2d_1-7"><path
                 d="m 140.39603,126.4278 h 101.8565"
                 clip-path="url(#p10642e6903)"
                 style="fill:none;stroke:#b0b0b0;stroke-width:0.8;stroke-linecap:square"
                 id="path4002" /></g><g
               id="text_1-4"><text
                 style="font-size:6px;font-family:Arial, sans-serif;text-anchor:middle"
                 x="254.75253"
                 y="128.01546"
                 id="text4005">ADHD_PRS</text></g></g><g
             id="xtick_2-5"><g
               id="line2d_2-2"><path
                 d="M 140.39603,126.4278 212.41945,54.404378"
                 clip-path="url(#p10642e6903)"
                 style="fill:none;stroke:#b0b0b0;stroke-width:0.8;stroke-linecap:square"
                 id="path4009" /></g><g
               id="text_2-5"><text
                 style="font-size:6px;font-family:Arial, sans-serif;text-anchor:middle"
                 x="221.25829"
                 y="47.153198"
                 id="text4012">BMI_PRS</text></g></g><g
             id="xtick_3-4"><g
               id="line2d_3-7"><path
                 d="M 140.39603,126.4278 V 24.5713"
                 clip-path="url(#p10642e6903)"
                 style="fill:none;stroke:#b0b0b0;stroke-width:0.8;stroke-linecap:square"
                 id="path4016" /></g><g
               id="text_3-4"><text
                 style="font-size:6px;font-family:Arial, sans-serif;text-anchor:middle"
                 x="140.39603"
                 y="13.658956"
                 id="text4019">EA_PRS</text></g></g><g
             id="xtick_4-4"><g
               id="line2d_4-3"><path
                 d="M 140.39603,126.4278 68.372609,54.404378"
                 clip-path="url(#p10642e6903)"
                 style="fill:none;stroke:#b0b0b0;stroke-width:0.8;stroke-linecap:square"
                 id="path4023" /></g><g
               id="text_4-0"><text
                 style="font-size:6px;font-family:Arial, sans-serif;text-anchor:middle"
                 x="59.533775"
                 y="47.118042"
                 id="text4026">Height_PRS</text></g></g><g
             id="xtick_5-7"><g
               id="line2d_5-8"><path
                 d="M 140.39603,126.4278 H 38.539531"
                 clip-path="url(#p10642e6903)"
                 style="fill:none;stroke:#b0b0b0;stroke-width:0.8;stroke-linecap:square"
                 id="path4030" /></g><g
               id="text_5-6"><text
                 style="font-size:6px;font-family:Arial, sans-serif;text-anchor:middle"
                 x="26.039532"
                 y="128.01546"
                 id="text4033">IBD_CD_PRS</text></g></g><g
             id="xtick_6-8"><g
               id="line2d_6-8"><path
                 d="M 140.39603,126.4278 68.372609,198.45122"
                 clip-path="url(#p10642e6903)"
                 style="fill:none;stroke:#b0b0b0;stroke-width:0.8;stroke-linecap:square"
                 id="path4037" /></g><g
               id="text_6-4"><text
                 style="font-size:6px;font-family:Arial, sans-serif;text-anchor:middle"
                 x="59.533775"
                 y="208.87772"
                 id="text4040">IBD_UC_PRS</text></g></g><g
             id="xtick_7-3"><g
               id="line2d_7-1"><path
                 d="M 140.39603,126.4278 V 228.2843"
                 clip-path="url(#p10642e6903)"
                 style="fill:none;stroke:#b0b0b0;stroke-width:0.8;stroke-linecap:square"
                 id="path4044" /></g><g
               id="text_7-4"><text
                 style="font-size:6px;font-family:Arial, sans-serif;text-anchor:middle"
                 x="140.39603"
                 y="242.33681"
                 id="text4047">Intelligent_PRS</text></g></g><g
             id="xtick_8-9"><g
               id="line2d_8-2"><path
                 d="m 140.39603,126.4278 72.02342,72.02342"
                 clip-path="url(#p10642e6903)"
                 style="fill:none;stroke:#b0b0b0;stroke-width:0.8;stroke-linecap:square"
                 id="path4051" /></g><g
               id="text_8-0"><text
                 style="font-size:6px;font-family:Arial, sans-serif;text-anchor:middle"
                 x="221.25829"
                 y="208.87772"
                 id="text4054">NAFLD_PRS</text></g></g></g><g
           id="matplotlib.axis_2-6"><g
             id="ytick_1-8"><g
               id="line2d_9-9"><path
                 d="m 140.90034,126.4278 c 0,-0.0662 -0.013,-0.13181 -0.0384,-0.19299 -0.0253,-0.0612 -0.0625,-0.11678 -0.10932,-0.16361 -0.0468,-0.0468 -0.10242,-0.084 -0.16361,-0.10932 -0.0612,-0.0253 -0.12676,-0.0384 -0.19299,-0.0384 -0.0662,0 -0.13181,0.013 -0.19299,0.0384 -0.0612,0.0253 -0.11678,0.0625 -0.16361,0.10932 -0.0468,0.0468 -0.084,0.10242 -0.10932,0.16361 -0.0254,0.0612 -0.0384,0.12676 -0.0384,0.19299 0,0.0662 0.013,0.13181 0.0384,0.19299 0.0253,0.0612 0.0625,0.11678 0.10932,0.16361 0.0468,0.0468 0.10242,0.084 0.16361,0.10932 0.0612,0.0254 0.12677,0.0384 0.19299,0.0384 0.0662,0 0.13181,-0.013 0.19299,-0.0384 0.0612,-0.0253 0.11679,-0.0625 0.16361,-0.10932 0.0468,-0.0468 0.084,-0.10242 0.10932,-0.16361 0.0254,-0.0612 0.0384,-0.12676 0.0384,-0.19299"
                 clip-path="url(#p10642e6903)"
                 style="fill:none;stroke:#b0b0b0;stroke-width:0.8;stroke-linecap:square"
                 id="path4059" /></g><g
               id="text_9-2"><text
                 style="font-size:6px;font-family:Arial, sans-serif;text-anchor:start"
                 x="140.86195"
                 y="125.0423"
                 id="text4062">-0.6</text></g></g><g
             id="ytick_2-6"><g
               id="line2d_10-6"><path
                 d="m 158.12118,126.4278 c 0,-2.32765 -0.45849,-4.63266 -1.34924,-6.78312 -0.89075,-2.15047 -2.19644,-4.10456 -3.84233,-5.75046 -1.6459,-1.64589 -3.59999,-2.95157 -5.75046,-3.84233 -2.15046,-0.89075 -4.45547,-1.34924 -6.78312,-1.34924 -2.32765,0 -4.63266,0.45849 -6.78312,1.34924 -2.15047,0.89076 -4.10456,2.19644 -5.75046,3.84233 -1.64589,1.6459 -2.95157,3.59999 -3.84233,5.75046 -0.89075,2.15046 -1.34924,4.45547 -1.34924,6.78312 0,2.32765 0.45849,4.63266 1.34924,6.78312 0.89076,2.15047 2.19644,4.10456 3.84233,5.75046 1.6459,1.64589 3.59999,2.95157 5.75046,3.84233 2.15046,0.89075 4.45547,1.34924 6.78312,1.34924 2.32765,0 4.63266,-0.45849 6.78312,-1.34924 2.15047,-0.89076 4.10456,-2.19644 5.75046,-3.84233 1.64589,-1.6459 2.95158,-3.59999 3.84233,-5.75046 0.89075,-2.15046 1.34924,-4.45547 1.34924,-6.78312"
                 clip-path="url(#p10642e6903)"
                 style="fill:none;stroke:#b0b0b0;stroke-width:0.8;stroke-linecap:square"
                 id="path4066" /></g><g
               id="text_10-4"><text
                 style="font-size:6px;font-family:Arial, sans-serif;text-anchor:start"
                 x="156.77194"
                 y="118.45218"
                 id="text4069">-0.4</text></g></g><g
             id="ytick_3-9"><g
               id="line2d_11-5"><path
                 d="m 175.34202,126.4278 c 0,-4.58907 -0.90394,-9.13351 -2.6601,-13.37325 -1.75616,-4.23975 -4.33038,-8.09234 -7.57534,-11.3373 -3.24496,-3.244958 -7.09755,-5.819178 -11.3373,-7.575338 -4.23974,-1.756159 -8.78418,-2.660105 -13.37325,-2.660105 -4.58907,0 -9.13351,0.903946 -13.37325,2.660105 -4.23975,1.75616 -8.09234,4.33038 -11.3373,7.575338 -3.24496,3.24496 -5.81918,7.09755 -7.57534,11.3373 -1.75616,4.23974 -2.6601,8.78418 -2.6601,13.37325 0,4.58907 0.90394,9.13351 2.6601,13.37325 1.75616,4.23975 4.33038,8.09234 7.57534,11.3373 3.24496,3.24496 7.09755,5.81918 11.3373,7.57534 4.23974,1.75616 8.78418,2.6601 13.37325,2.6601 4.58907,0 9.13351,-0.90394 13.37325,-2.6601 4.23975,-1.75616 8.09234,-4.33038 11.3373,-7.57534 3.24496,-3.24496 5.81918,-7.09755 7.57534,-11.3373 1.75616,-4.23974 2.6601,-8.78418 2.6601,-13.37325"
                 clip-path="url(#p10642e6903)"
                 style="fill:none;stroke:#b0b0b0;stroke-width:0.8;stroke-linecap:square"
                 id="path4073" /></g><g
               id="text_11-0"><text
                 style="font-size:6px;font-family:Arial, sans-serif;text-anchor:start"
                 x="172.68192"
                 y="111.86205"
                 id="text4076">-0.2</text></g></g><g
             id="ytick_4-4"><g
               id="line2d_12-8"><path
                 d="m 192.56286,126.4278 c 0,-6.85049 -1.34939,-13.63436 -3.97096,-19.96338 -2.62157,-6.32903 -6.46432,-12.080117 -11.30835,-16.924142 -4.84402,-4.844025 -10.59511,-8.68678 -16.92414,-11.308348 -6.32902,-2.621567 -13.11289,-3.970963 -19.96338,-3.970963 -6.85049,0 -13.63436,1.349396 -19.96338,3.970963 -6.32903,2.621568 -12.08011,6.464323 -16.92414,11.308348 -4.844025,4.844025 -8.686781,10.595112 -11.308348,16.924142 -2.621568,6.32902 -3.970964,13.11289 -3.970964,19.96338 0,6.85049 1.349396,13.63436 3.970964,19.96338 2.621567,6.32903 6.464323,12.08012 11.308348,16.92414 4.84403,4.84403 10.59511,8.68678 16.92414,11.30835 6.32902,2.62157 13.11289,3.97096 19.96338,3.97096 6.85049,0 13.63436,-1.34939 19.96338,-3.97096 6.32903,-2.62157 12.08012,-6.46432 16.92414,-11.30835 4.84403,-4.84402 8.68678,-10.59511 11.30835,-16.92414 2.62157,-6.32902 3.97096,-13.11289 3.97096,-19.96338"
                 clip-path="url(#p10642e6903)"
                 style="fill:none;stroke:#b0b0b0;stroke-width:0.8;stroke-linecap:square"
                 id="path4080" /></g><g
               id="text_12-7"><text
                 style="font-size:6px;font-family:Arial, sans-serif;text-anchor:start"
                 x="188.5919"
                 y="105.27192"
                 id="text4083">0.0</text></g></g><g
             id="ytick_5-1"><g
               id="line2d_13-7"><path
                 d="m 209.7837,126.4278 c 0,-9.11191 -1.79484,-18.13521 -5.28182,-26.553513 -3.48697,-8.418303 -8.59826,-16.067891 -15.04135,-22.510982 -6.4431,-6.44309 -14.09268,-11.554381 -22.51099,-15.041357 -8.4183,-3.486975 -17.4416,-5.281822 -26.55351,-5.281822 -9.11191,0 -18.13521,1.794847 -26.55351,5.281822 -8.4183,3.486976 -16.067893,8.598267 -22.510983,15.041357 -6.443091,6.443091 -11.554382,14.092679 -15.041357,22.510982 -3.486976,8.418303 -5.281822,17.441603 -5.281822,26.553513 0,9.11191 1.794846,18.13521 5.281822,26.55351 3.486975,8.41831 8.598266,16.06789 15.041357,22.51099 6.44309,6.44308 14.092683,11.55438 22.510983,15.04135 8.4183,3.48698 17.4416,5.28182 26.55351,5.28182 9.11191,0 18.13521,-1.79484 26.55351,-5.28182 8.41831,-3.48697 16.06789,-8.59827 22.51099,-15.04135 6.44309,-6.4431 11.55438,-14.09268 15.04135,-22.51099 3.48698,-8.4183 5.28182,-17.4416 5.28182,-26.55351"
                 clip-path="url(#p10642e6903)"
                 style="fill:none;stroke:#b0b0b0;stroke-width:0.8;stroke-linecap:square"
                 id="path4087" /></g><g
               id="text_13-2"><text
                 style="font-size:6px;font-family:Arial, sans-serif;text-anchor:start"
                 x="204.50188"
                 y="98.681786"
                 id="text4090">0.2</text></g></g><g
             id="ytick_6-7"><g
               id="line2d_14-2"><path
                 d="m 227.00454,126.4278 c 0,-11.37333 -2.24029,-22.63606 -6.59268,-33.143643 C 216.05948,82.776574 209.67965,73.228488 201.6375,65.186332 193.59534,57.144177 184.04726,50.76435 173.53967,46.411967 c -10.50758,-4.352384 -21.77031,-6.592681 -33.14364,-6.592681 -11.37333,0 -22.63606,2.240297 -33.14364,6.592681 -10.507585,4.352383 -20.05567,10.73221 -28.097826,18.774365 -8.042156,8.042156 -14.421983,17.590242 -18.774366,28.097825 -4.352384,10.507583 -6.592681,21.770313 -6.592681,33.143643 0,11.37333 2.240297,22.63606 6.592681,33.14364 4.352383,10.50759 10.73221,20.05567 18.774366,28.09783 8.042156,8.04215 17.590241,14.42198 28.097826,18.77436 10.50758,4.35239 21.77031,6.59268 33.14364,6.59268 11.37333,0 22.63606,-2.24029 33.14364,-6.59268 10.50759,-4.35238 20.05567,-10.73221 28.09783,-18.77436 8.04215,-8.04216 14.42198,-17.59024 18.77436,-28.09783 4.35239,-10.50758 6.59268,-21.77031 6.59268,-33.14364"
                 clip-path="url(#p10642e6903)"
                 style="fill:none;stroke:#b0b0b0;stroke-width:0.8;stroke-linecap:square"
                 id="path4094" /></g><g
               id="text_14-2"><text
                 style="font-size:6px;font-family:Arial, sans-serif;text-anchor:start"
                 x="220.41187"
                 y="92.09166"
                 id="text4097">0.4</text></g></g></g><g
           id="line2d_15-6"><path
             d="m 180.87265,126.4278 8.48377,-48.960394 -48.96039,-23.185454 -31.56287,40.582978 -53.262728,31.56287 40.775865,44.04973 44.049733,25.64005 25.76675,-43.92303 14.70987,-25.76675"
             clip-path="url(#p10642e6903)"
             style="fill:none;stroke:#db5f57;stroke-width:2;stroke-linecap:square"
             id="path4102" /></g><g
           id="line2d_16-1"><path
             d="m 220.26804,126.4278 -36.01726,-43.854753 -43.85475,7.933241 -20.44163,15.479882 -18.85054,20.44163 -6.606008,45.89818 45.898178,6.05563 28.4485,-23.50531 51.42351,-28.4485"
             clip-path="url(#p10642e6903)"
             style="fill:none;stroke:#91db57;stroke-width:2;stroke-linecap:square"
             id="path4105" /></g><g
           id="line2d_17-0"><path
             d="M 208.37577,126.4278 181.2985,85.52533 140.39603,77.463211 71.646401,57.67817 l 64.119789,68.74963 -17.94908,22.57892 22.57892,12.28711 42.50153,7.6355 25.47821,-42.50153"
             clip-path="url(#p10642e6903)"
             style="fill:none;stroke:#57d3db;stroke-width:2;stroke-linecap:square"
             id="path4108" /></g><g
           id="line2d_18-6"><path
             d="m 166.74514,126.4278 -4.69222,-21.65689 -21.65689,-33.180542 -26.32717,28.510252 -54.196926,26.32718 42.831446,37.69265 37.69265,18.3049 44.92247,-11.07509 -18.57336,-44.92246"
             clip-path="url(#p10642e6903)"
             style="fill:none;stroke:#a157db;stroke-width:2;stroke-linecap:square"
             id="path4111" /></g><g
           id="patch_7"><path
             d="m 242.25253,126.4278 c 0,-13.37567 -2.63472,-26.621284 -7.75336,-38.978795 C 229.38052,75.091494 221.87748,63.862407 212.41945,54.404378 202.96142,44.946349 191.73234,37.443313 179.37483,32.324664 167.01732,27.206016 153.7717,24.5713 140.39603,24.5713 c -13.37567,0 -26.62128,2.634716 -38.97879,7.753364 C 89.059726,37.443313 77.830638,44.946349 68.372609,54.404378 58.91458,63.862407 51.411544,75.091494 46.292896,87.449005 41.174247,99.806516 38.539531,113.05213 38.539531,126.4278 c 0,13.37567 2.634716,26.62128 7.753365,38.97879 5.118648,12.35752 12.621684,23.5866 22.079713,33.04463 9.458029,9.45803 20.687117,16.96107 33.044631,22.07972 12.35751,5.11864 25.60312,7.75336 38.97879,7.75336 13.37567,0 26.62129,-2.63472 38.9788,-7.75336 12.35751,-5.11865 23.58659,-12.62169 33.04462,-22.07972 9.45803,-9.45803 16.96107,-20.68711 22.07972,-33.04463 5.11864,-12.35751 7.75336,-25.60312 7.75336,-38.97879"
             style="fill:none;stroke:#000000;stroke-width:0.4;stroke-linecap:square;stroke-linejoin:miter"
             id="path4114" /></g><g
           id="legend_1-1"><g
             id="line2d_19-5"><path
               d="m 260.45857,12.42 h 4.5 4.5"
               style="fill:none;stroke:#db5f57;stroke-width:2;stroke-linecap:square"
               id="path4117" /></g><g
             id="text_15-9"><text
               style="font-size:6px;font-family:Arial, sans-serif;text-anchor:start"
               x="274.25858"
               y="15.24"
               id="text4120">4</text></g><g
             id="line2d_20"><path
               d="m 260.45857,22.74 h 4.5 4.5"
               style="fill:none;stroke:#91db57;stroke-width:2;stroke-linecap:square"
               id="path4123" /></g><g
             id="text_16-4"><text
               style="font-size:6px;font-family:Arial, sans-serif;text-anchor:start"
               x="274.25858"
               y="25.559999"
               id="text4126">3</text></g><g
             id="line2d_21"><path
               d="m 260.45857,33.06 h 4.5 4.5"
               style="fill:none;stroke:#57d3db;stroke-width:2;stroke-linecap:square"
               id="path4129" /></g><g
             id="text_17-9"><text
               style="font-size:6px;font-family:Arial, sans-serif;text-anchor:start"
               x="274.25858"
               y="35.880001"
               id="text4132">2</text></g><g
             id="line2d_22"><path
               d="m 260.45857,43.38 h 4.5 4.5"
               style="fill:none;stroke:#a157db;stroke-width:2;stroke-linecap:square"
               id="path4135" /></g><g
             id="text_18"><text
               style="font-size:6px;font-family:Arial, sans-serif;text-anchor:start"
               x="274.25858"
               y="46.200001"
               id="text4138">1</text></g></g></g></g></g></svg>
